<svg width="24" height="24" viewBox="0 0 24 24" fill="none" xmlns="http://www.w3.org/2000/svg">
<circle cx="12" cy="12" r="10.8" fill="#65A8A0" stroke="white" stroke-width="1.6"/>
<path d="M15.7255 11.2355H14.215C13.8908 11.2355 12.9735 11.3624 12.6631 11.2079C12.6011 11.0314 12.8011 10.7115 12.8563 10.557C13.0149 10.1101 13.1666 9.66882 13.3253 9.21646L14.0012 7.2691C14.0909 7.01534 13.677 6.90501 13.5046 7.09809L8.04197 13.0946C7.91782 13.2325 8.09025 13.4256 8.28337 13.4256H10.4974C10.6491 13.4256 11.2354 13.3484 11.332 13.4642C11.4216 13.558 11.2492 13.8504 11.2147 13.9552C10.8009 15.1027 10.4008 16.2501 10.0008 17.3976C9.91113 17.6513 10.325 17.7617 10.4974 17.5686L15.9531 11.572C16.0842 11.4286 15.9186 11.2355 15.7255 11.2355Z" fill="white"/>
</svg>
